<svg width="600" height="400" viewBox="0 0 600 400" fill="none" xmlns="http://www.w3.org/2000/svg">
  <g>
    <ellipse cx="100" cy="350" rx="30" ry="50" fill="#FF6F61"/>
    <ellipse cx="200" cy="320" rx="28" ry="48" fill="#FFD700"/>
    <ellipse cx="300" cy="370" rx="32" ry="52" fill="#009688"/>
<svg width="120" height="180" viewBox="0 0 120 180" fill="none" xmlns="http://www.w3.org/2000/svg">
  <ellipse cx="60" cy="60" rx="40" ry="55" fill="#FFD700" stroke="#E6B800" stroke-width="4"/>
  <ellipse cx="30" cy="100" rx="18" ry="25" fill="#009688" stroke="#00796B" stroke-width="3"/>
  <ellipse cx="90" cy="110" rx="16" ry="22" fill="#fffbe6" stroke="#FFD700" stroke-width="2"/>
  <ellipse cx="60" cy="130" rx="12" ry="16" fill="#E6B800" stroke="#FFD700" stroke-width="2"/>
  <path d="M60 115 C62 140, 58 170, 60 180" stroke="#E6B800" stroke-width="2" fill="none"/>
  <path d="M30 125 C32 140, 28 160, 30 170" stroke="#009688" stroke-width="2" fill="none"/>
  <path d="M90 132 C92 145, 88 165, 90 175" stroke="#FFD700" stroke-width="2" fill="none"/>
  <text x="60" y="50" text-anchor="middle" font-size="18" font-family="Tajawal, Arial, sans-serif" fill="#fff" stroke="#E6B800" stroke-width="0.5">عيد</text>
  <text x="60" y="70" text-anchor="middle" font-size="18" font-family="Tajawal, Arial, sans-serif" fill="#fff" stroke="#E6B800" stroke-width="0.5">مبارك</text>
</svg>
  </g>
</svg>